# xmcd CD database file
#
# Track frame offsets:
#	150
#	13375
#	25061
#	40364
#	54044
#	74499
#	91591
#	108798
#	126940
#	142633
#	155345
#
# Disc length: 2229 seconds
#
# Revision: 1
# Processed by: cddbd v1.5.2PL0 Copyright (c) Steve Scherf et al.
# Submitted via: CDex 1.70beta1
#
DISCID=8108b30b
DTITLE=Del Rey - When The Levee Breaks
DYEAR=2006
DGENRE=Blues
TTITLE0=Poison Ivy
TTITLE1=Til I Give It To You
TTITLE2=Mississippi River Blues
TTITLE3=I Was A Little Too Lonely
TTITLE4=Riot Call Blues
TTITLE5=It's Human Nature (To Complain)
TTITLE6=Everybody's Crazy
TTITLE7=Going Back To New Orleans
TTITLE8=No Man's Mama
TTITLE9=Old Rocking Chair
TTITLE10=When The Levee Breaks
EXTD=YEAR: 2006
EXTT0=
EXTT1=
EXTT2=
EXTT3=
EXTT4=
EXTT5=
EXTT6=
EXTT7=
EXTT8=
EXTT9=
EXTT10=
PLAYORDER=
